<svg xmlns="http://www.w3.org/2000/svg" id="unit-circle-param-figure" width="390" height="390" viewBox="0 0 390 390">
  <defs>
    <clipPath id="unit-circle-param-clipPath-0">
      <rect x="5.0" y="5.0" width="380.0" height="380.0"/>
    </clipPath>
    <clipPath id="unit-circle-param-clipPath-1">
      <rect x="5.0" y="5.0" width="380.0" height="380.0"/>
    </clipPath>
    <marker id="unit-circle-param-arrow-head-end-3_None_24_60-blue" markerWidth="13.5" markerHeight="12.0" markerUnits="userSpaceOnUse" orient="auto-start-reverse" refX="9.8" refY="6.0">
      <path d="M 13.5 6.0L 0.0 12.0L 2.6 7.5L 2.6 4.5L 0.0 0.0Z" fill="blue" stroke="none"/>
    </marker>
    <marker id="unit-circle-param-arrow-head-end-3_None_24_60-blue-outline" markerWidth="17.5" markerHeight="16.0" markerUnits="userSpaceOnUse" orient="auto-start-reverse" refX="11.8" refY="8.0">
      <path d="M 16.3 9.8 L 2.8 15.8 A 2 2 0 0 1 0.0 14.0 L 0.0 2.0 A 2 2 0 0 1 2.8 0.2 L 16.3 6.2 A 2 2 0 0 1 16.3 9.8 Z" fill="white" stroke="none"/>
    </marker>
  </defs>
  <g id="unit-circle-param-grid-axes">
    <g id="unit-circle-param-grid" stroke="#ccc" stroke-width="1">
      <line x1="16.9" y1="385.0" x2="16.9" y2="5.0"/>
      <line x1="76.2" y1="385.0" x2="76.2" y2="5.0"/>
      <line x1="135.6" y1="385.0" x2="135.6" y2="5.0"/>
      <line x1="195.0" y1="385.0" x2="195.0" y2="5.0"/>
      <line x1="254.4" y1="385.0" x2="254.4" y2="5.0"/>
      <line x1="313.8" y1="385.0" x2="313.8" y2="5.0"/>
      <line x1="373.1" y1="385.0" x2="373.1" y2="5.0"/>
      <line x1="5.0" y1="373.1" x2="385.0" y2="373.1"/>
      <line x1="5.0" y1="313.8" x2="385.0" y2="313.8"/>
      <line x1="5.0" y1="254.4" x2="385.0" y2="254.4"/>
      <line x1="5.0" y1="195.0" x2="385.0" y2="195.0"/>
      <line x1="5.0" y1="135.6" x2="385.0" y2="135.6"/>
      <line x1="5.0" y1="76.2" x2="385.0" y2="76.2"/>
      <line x1="5.0" y1="16.9" x2="385.0" y2="16.9"/>
    </g>
    <g id="unit-circle-param-axes" stroke="black" stroke-width="2">
      <line id="unit-circle-param-line-14" x1="5.0" y1="195.0" x2="385.0" y2="195.0" stroke="black" stroke-width="2"/>
      <g>
        <line id="unit-circle-param-line-15" x1="76.2" y1="198.0" x2="76.2" y2="192.0"/>
        <line id="unit-circle-param-line-16" x1="313.8" y1="198.0" x2="313.8" y2="192.0"/>
      </g>
      <line id="unit-circle-param-line-17" x1="195.0" y1="385.0" x2="195.0" y2="5.0" stroke="black" stroke-width="2"/>
      <g>
        <line id="unit-circle-param-line-18" x1="192.0" y1="313.8" x2="198.0" y2="313.8"/>
        <line id="unit-circle-param-line-19" x1="192.0" y1="76.2" x2="198.0" y2="76.2"/>
      </g>
    </g>
    <g id="unit-circle-param-label-0" transform="translate(381.0,191.0) translate(-10.4,-8.2)">
      <g id="unit-circle-param-g-0">
        <svg xmlns:xlink="http://www.w3.org/1999/xlink" style="vertical-align: -0.200px" width="10.352px" height="8.200px" role="img" focusable="false" viewBox="0 -442 572 453" x="0.0" y="0.0">
          <defs>
            <path id="unit-circle-param-MJX-2-TEX-I-1D465" d="M52 289Q59 331 106 386T222 442Q257 442 286 424T329 379Q371 442 430 442Q467 442 494 420T522 361Q522 332 508 314T481 292T458 288Q439 288 427 299T415 328Q415 374 465 391Q454 404 425 404Q412 404 406 402Q368 386 350 336Q290 115 290 78Q290 50 306 38T341 26Q378 26 414 59T463 140Q466 150 469 151T485 153H489Q504 153 504 145Q504 144 502 134Q486 77 440 33T333 -11Q263 -11 227 52Q186 -10 133 -10H127Q78 -10 57 16T35 71Q35 103 54 123T99 143Q142 143 142 101Q142 81 130 66T107 46T94 41L91 40Q91 39 97 36T113 29T132 26Q168 26 194 71Q203 87 217 139T245 247T261 313Q266 340 266 352Q266 380 251 392T217 404Q177 404 142 372T93 290Q91 281 88 280T72 278H58Q52 284 52 289Z"/>
          </defs>
          <g stroke="currentColor" fill="currentColor" stroke-width="0" transform="scale(1,-1)">
            <g data-mml-node="math">
              <g data-mml-node="mi" data-semantic-type="identifier" data-semantic-role="latinletter" data-semantic-font="italic" data-semantic-annotation="clearspeak:simple" data-semantic-id="0" data-semantic-speech="x">
                <use data-c="1D465" xlink:href="#unit-circle-param-MJX-2-TEX-I-1D465"/>
              </g>
            </g>
          </g>
        </svg>
      </g>
    </g>
    <g id="unit-circle-param-label-1" transform="translate(199.0,9.0) translate(0.0,-0.0)">
      <g id="unit-circle-param-g-1">
        <svg xmlns:xlink="http://www.w3.org/1999/xlink" style="vertical-align: -3.712px" width="8.872px" height="11.712px" role="img" focusable="false" viewBox="0 -442 490 647" x="0.0" y="0.0">
          <defs>
            <path id="unit-circle-param-MJX-3-TEX-I-1D466" d="M21 287Q21 301 36 335T84 406T158 442Q199 442 224 419T250 355Q248 336 247 334Q247 331 231 288T198 191T182 105Q182 62 196 45T238 27Q261 27 281 38T312 61T339 94Q339 95 344 114T358 173T377 247Q415 397 419 404Q432 431 462 431Q475 431 483 424T494 412T496 403Q496 390 447 193T391 -23Q363 -106 294 -155T156 -205Q111 -205 77 -183T43 -117Q43 -95 50 -80T69 -58T89 -48T106 -45Q150 -45 150 -87Q150 -107 138 -122T115 -142T102 -147L99 -148Q101 -153 118 -160T152 -167H160Q177 -167 186 -165Q219 -156 247 -127T290 -65T313 -9T321 21L315 17Q309 13 296 6T270 -6Q250 -11 231 -11Q185 -11 150 11T104 82Q103 89 103 113Q103 170 138 262T173 379Q173 380 173 381Q173 390 173 393T169 400T158 404H154Q131 404 112 385T82 344T65 302T57 280Q55 278 41 278H27Q21 284 21 287Z"/>
          </defs>
          <g stroke="currentColor" fill="currentColor" stroke-width="0" transform="scale(1,-1)">
            <g data-mml-node="math">
              <g data-mml-node="mi" data-semantic-type="identifier" data-semantic-role="latinletter" data-semantic-font="italic" data-semantic-annotation="clearspeak:simple" data-semantic-id="0" data-semantic-speech="y">
                <use data-c="1D466" xlink:href="#unit-circle-param-MJX-3-TEX-I-1D466"/>
              </g>
            </g>
          </g>
        </svg>
      </g>
    </g>
    <g id="unit-circle-param-label-2" transform="translate(76.2,206.0) translate(-7.5,-0.0)">
      <g id="unit-circle-param-g-2">
        <svg xmlns:xlink="http://www.w3.org/1999/xlink" style="vertical-align: 0.000px" width="15.080px" height="12.056px" role="img" focusable="false" viewBox="0 -666 833 666" x="0.0" y="0.0">
          <defs>
            <path id="unit-circle-param-MJX-4-TEX-N-2D" d="M11 179V252H277V179H11Z"/>
            <path id="unit-circle-param-MJX-4-TEX-N-31" d="M213 578L200 573Q186 568 160 563T102 556H83V602H102Q149 604 189 617T245 641T273 663Q275 666 285 666Q294 666 302 660V361L303 61Q310 54 315 52T339 48T401 46H427V0H416Q395 3 257 3Q121 3 100 0H88V46H114Q136 46 152 46T177 47T193 50T201 52T207 57T213 61V578Z"/>
          </defs>
          <g stroke="currentColor" fill="currentColor" stroke-width="0" transform="scale(1,-1)">
            <g data-mml-node="math">
              <g data-mml-node="mtext" data-semantic-type="text" data-semantic-role="unknown" data-semantic-font="normal" data-semantic-annotation="clearspeak:unit" data-semantic-id="0" data-semantic-speech="hyphen 1">
                <use data-c="2D" xlink:href="#unit-circle-param-MJX-4-TEX-N-2D"/>
                <use data-c="31" xlink:href="#unit-circle-param-MJX-4-TEX-N-31" transform="translate(333,0)"/>
              </g>
            </g>
          </g>
        </svg>
      </g>
    </g>
    <g id="unit-circle-param-label-3" transform="translate(313.8,206.0) translate(-4.5,-0.0)">
      <g id="unit-circle-param-g-3">
        <svg xmlns:xlink="http://www.w3.org/1999/xlink" style="vertical-align: 0.000px" width="9.048px" height="12.056px" role="img" focusable="false" viewBox="0 -666 500 666" x="0.0" y="0.0">
          <defs>
            <path id="unit-circle-param-MJX-5-TEX-N-31" d="M213 578L200 573Q186 568 160 563T102 556H83V602H102Q149 604 189 617T245 641T273 663Q275 666 285 666Q294 666 302 660V361L303 61Q310 54 315 52T339 48T401 46H427V0H416Q395 3 257 3Q121 3 100 0H88V46H114Q136 46 152 46T177 47T193 50T201 52T207 57T213 61V578Z"/>
          </defs>
          <g stroke="currentColor" fill="currentColor" stroke-width="0" transform="scale(1,-1)">
            <g data-mml-node="math">
              <g data-mml-node="mtext" data-semantic-type="text" data-semantic-role="integer" data-semantic-font="normal" data-semantic-annotation="clearspeak:unit" data-semantic-id="0" data-semantic-speech="1">
                <use data-c="31" xlink:href="#unit-circle-param-MJX-5-TEX-N-31"/>
              </g>
            </g>
          </g>
        </svg>
      </g>
    </g>
    <g id="unit-circle-param-label-4" transform="translate(184.0,313.8) translate(-15.1,-6.0)">
      <g id="unit-circle-param-g-4">
        <svg xmlns:xlink="http://www.w3.org/1999/xlink" style="vertical-align: 0.000px" width="15.080px" height="12.056px" role="img" focusable="false" viewBox="0 -666 833 666" x="0.0" y="0.0">
          <defs>
            <path id="unit-circle-param-MJX-6-TEX-N-2D" d="M11 179V252H277V179H11Z"/>
            <path id="unit-circle-param-MJX-6-TEX-N-31" d="M213 578L200 573Q186 568 160 563T102 556H83V602H102Q149 604 189 617T245 641T273 663Q275 666 285 666Q294 666 302 660V361L303 61Q310 54 315 52T339 48T401 46H427V0H416Q395 3 257 3Q121 3 100 0H88V46H114Q136 46 152 46T177 47T193 50T201 52T207 57T213 61V578Z"/>
          </defs>
          <g stroke="currentColor" fill="currentColor" stroke-width="0" transform="scale(1,-1)">
            <g data-mml-node="math">
              <g data-mml-node="mtext" data-semantic-type="text" data-semantic-role="unknown" data-semantic-font="normal" data-semantic-annotation="clearspeak:unit" data-semantic-id="0" data-semantic-speech="hyphen 1">
                <use data-c="2D" xlink:href="#unit-circle-param-MJX-6-TEX-N-2D"/>
                <use data-c="31" xlink:href="#unit-circle-param-MJX-6-TEX-N-31" transform="translate(333,0)"/>
              </g>
            </g>
          </g>
        </svg>
      </g>
    </g>
    <g id="unit-circle-param-label-5" transform="translate(184.0,76.2) translate(-9.0,-6.0)">
      <g id="unit-circle-param-g-5">
        <svg xmlns:xlink="http://www.w3.org/1999/xlink" style="vertical-align: 0.000px" width="9.048px" height="12.056px" role="img" focusable="false" viewBox="0 -666 500 666" x="0.0" y="0.0">
          <defs>
            <path id="unit-circle-param-MJX-7-TEX-N-31" d="M213 578L200 573Q186 568 160 563T102 556H83V602H102Q149 604 189 617T245 641T273 663Q275 666 285 666Q294 666 302 660V361L303 61Q310 54 315 52T339 48T401 46H427V0H416Q395 3 257 3Q121 3 100 0H88V46H114Q136 46 152 46T177 47T193 50T201 52T207 57T213 61V578Z"/>
          </defs>
          <g stroke="currentColor" fill="currentColor" stroke-width="0" transform="scale(1,-1)">
            <g data-mml-node="math">
              <g data-mml-node="mtext" data-semantic-type="text" data-semantic-role="integer" data-semantic-font="normal" data-semantic-annotation="clearspeak:unit" data-semantic-id="0" data-semantic-speech="1">
                <use data-c="31" xlink:href="#unit-circle-param-MJX-7-TEX-N-31"/>
              </g>
            </g>
          </g>
        </svg>
      </g>
    </g>
  </g>
  <g id="unit-circle-param-curve">
    <path id="unit-circle-param-path-0" d="M 313.8 195.0 L 313.5 187.5 L 312.8 180.1 L 311.6 172.7 L 310.0 165.5 L 307.9 158.3 L 305.4 151.3 L 302.4 144.4 L 299.1 137.8 L 295.3 131.4 L 291.1 125.2 L 286.5 119.3 L 281.6 113.7 L 276.3 108.4 L 270.7 103.5 L 264.8 98.9 L 258.6 94.7 L 252.2 90.9 L 245.6 87.6 L 238.7 84.6 L 231.7 82.1 L 224.5 80.0 L 217.3 78.4 L 209.9 77.2 L 202.5 76.5 L 195.0 76.2 L 187.5 76.5 L 180.1 77.2 L 172.7 78.4 L 165.5 80.0 L 158.3 82.1 L 151.3 84.6 L 144.4 87.6 L 137.8 90.9 L 131.4 94.7 L 125.2 98.9 L 119.3 103.5 L 113.7 108.4 L 108.4 113.7 L 103.5 119.3 L 98.9 125.2 L 94.7 131.4 L 90.9 137.8 L 87.6 144.4 L 84.6 151.3 L 82.1 158.3 L 80.0 165.5 L 78.4 172.7 L 77.2 180.1 L 76.5 187.5 L 76.2 195.0 L 76.5 202.5 L 77.2 209.9 L 78.4 217.3 L 80.0 224.5 L 82.1 231.7 L 84.6 238.7 L 87.6 245.6 L 90.9 252.2 L 94.7 258.6 L 98.9 264.8 L 103.5 270.7 L 108.4 276.3 L 113.7 281.6 L 119.3 286.5 L 125.2 291.1 L 131.4 295.3 L 137.8 299.1 L 144.4 302.4 L 151.3 305.4 L 158.3 307.9 L 165.5 310.0 L 172.7 311.6 L 180.1 312.8 L 187.5 313.5 L 195.0 313.8 L 202.5 313.5 L 209.9 312.8 L 217.3 311.6 L 224.5 310.0 L 231.7 307.9 L 238.7 305.4 L 245.6 302.4 L 252.2 299.1 L 258.6 295.3 L 264.8 291.1 L 270.7 286.5 L 276.3 281.6 L 281.6 276.3 L 286.5 270.7 L 291.1 264.8 L 295.3 258.6 L 299.1 252.2 L 302.4 245.6 L 305.4 238.7 L 307.9 231.7 L 310.0 224.5 L 311.6 217.3 L 312.8 209.9 L 313.5 202.5 L 313.8 195.0 M 313.7 190.7 L 313.2 183.3 L 312.2 175.9 L 310.8 168.6 L 308.9 161.4 L 306.6 154.3" stroke="blue" stroke-width="3" fill="none" clip-path="url(#unit-circle-param-clipPath-1)" marker-end="url(#unit-circle-param-arrow-head-end-3_None_24_60-blue)"/>
  </g>
  <g id="unit-circle-param-quarters">
    <circle id="unit-circle-param-circle-0" cx="313.8" cy="195.0" r="4" stroke="red" stroke-width="2" fill="red"/>
    <g id="unit-circle-param-label-6" transform="translate(323.8,187.0) translate(0.0,-13.5)">
      <rect x="-6" y="-6" width="51.72" height="25.536" stroke="none" fill="white"/>
      <g id="unit-circle-param-g-6">
        <svg xmlns:xlink="http://www.w3.org/1999/xlink" style="vertical-align: -1.488px" width="39.720px" height="13.536px" role="img" focusable="false" viewBox="0 -666 2194.6 748" x="0.0" y="0.0">
          <defs>
            <path id="unit-circle-param-MJX-8-TEX-I-1D461" d="M26 385Q19 392 19 395Q19 399 22 411T27 425Q29 430 36 430T87 431H140L159 511Q162 522 166 540T173 566T179 586T187 603T197 615T211 624T229 626Q247 625 254 615T261 596Q261 589 252 549T232 470L222 433Q222 431 272 431H323Q330 424 330 420Q330 398 317 385H210L174 240Q135 80 135 68Q135 26 162 26Q197 26 230 60T283 144Q285 150 288 151T303 153H307Q322 153 322 145Q322 142 319 133Q314 117 301 95T267 48T216 6T155 -11Q125 -11 98 4T59 56Q57 64 57 83V101L92 241Q127 382 128 383Q128 385 77 385H26Z"/>
            <path id="unit-circle-param-MJX-8-TEX-N-3D" d="M56 347Q56 360 70 367H707Q722 359 722 347Q722 336 708 328L390 327H72Q56 332 56 347ZM56 153Q56 168 72 173H708Q722 163 722 153Q722 140 707 133H70Q56 140 56 153Z"/>
            <path id="unit-circle-param-MJX-8-TEX-N-30" d="M96 585Q152 666 249 666Q297 666 345 640T423 548Q460 465 460 320Q460 165 417 83Q397 41 362 16T301 -15T250 -22Q224 -22 198 -16T137 16T82 83Q39 165 39 320Q39 494 96 585ZM321 597Q291 629 250 629Q208 629 178 597Q153 571 145 525T137 333Q137 175 145 125T181 46Q209 16 250 16Q290 16 318 46Q347 76 354 130T362 333Q362 478 354 524T321 597Z"/>
          </defs>
          <g stroke="currentColor" fill="currentColor" stroke-width="0" transform="scale(1,-1)">
            <g data-mml-node="math" data-semantic-type="relseq" data-semantic-role="equality" data-semantic-id="3" data-semantic-children="0,2" data-semantic-content="1" data-semantic-speech="t equals 0">
              <g data-mml-node="mi" data-semantic-type="identifier" data-semantic-role="latinletter" data-semantic-font="italic" data-semantic-annotation="clearspeak:simple" data-semantic-id="0" data-semantic-parent="3" data-semantic-speech="t">
                <use data-c="1D461" xlink:href="#unit-circle-param-MJX-8-TEX-I-1D461"/>
              </g>
              <g data-mml-node="mo" data-semantic-type="relation" data-semantic-role="equality" data-semantic-id="1" data-semantic-parent="3" data-semantic-operator="relseq,=" data-semantic-speech="equals" transform="translate(638.8,0)">
                <use data-c="3D" xlink:href="#unit-circle-param-MJX-8-TEX-N-3D"/>
              </g>
              <g data-mml-node="mn" data-semantic-type="number" data-semantic-role="integer" data-semantic-font="normal" data-semantic-annotation="clearspeak:simple" data-semantic-id="2" data-semantic-parent="3" data-semantic-speech="0" transform="translate(1694.6,0)">
                <use data-c="30" xlink:href="#unit-circle-param-MJX-8-TEX-N-30"/>
              </g>
            </g>
          </g>
        </svg>
      </g>
    </g>
    <circle id="unit-circle-param-circle-1" cx="195.0" cy="76.2" r="4" stroke="red" stroke-width="2" fill="red"/>
    <g id="unit-circle-param-label-7" transform="translate(195.0,64.2) translate(-29.5,-18.1)">
      <rect x="-6" y="-6" width="71.088" height="30.096" stroke="none" fill="white"/>
      <g id="unit-circle-param-g-7">
        <svg xmlns:xlink="http://www.w3.org/1999/xlink" style="vertical-align: -4.528px" width="59.088px" height="18.096px" role="img" focusable="false" viewBox="0 -750 3264.6 1000" x="0.0" y="0.0">
          <defs>
            <path id="unit-circle-param-MJX-9-TEX-I-1D461" d="M26 385Q19 392 19 395Q19 399 22 411T27 425Q29 430 36 430T87 431H140L159 511Q162 522 166 540T173 566T179 586T187 603T197 615T211 624T229 626Q247 625 254 615T261 596Q261 589 252 549T232 470L222 433Q222 431 272 431H323Q330 424 330 420Q330 398 317 385H210L174 240Q135 80 135 68Q135 26 162 26Q197 26 230 60T283 144Q285 150 288 151T303 153H307Q322 153 322 145Q322 142 319 133Q314 117 301 95T267 48T216 6T155 -11Q125 -11 98 4T59 56Q57 64 57 83V101L92 241Q127 382 128 383Q128 385 77 385H26Z"/>
            <path id="unit-circle-param-MJX-9-TEX-N-3D" d="M56 347Q56 360 70 367H707Q722 359 722 347Q722 336 708 328L390 327H72Q56 332 56 347ZM56 153Q56 168 72 173H708Q722 163 722 153Q722 140 707 133H70Q56 140 56 153Z"/>
            <path id="unit-circle-param-MJX-9-TEX-I-1D70B" d="M132 -11Q98 -11 98 22V33L111 61Q186 219 220 334L228 358H196Q158 358 142 355T103 336Q92 329 81 318T62 297T53 285Q51 284 38 284Q19 284 19 294Q19 300 38 329T93 391T164 429Q171 431 389 431Q549 431 553 430Q573 423 573 402Q573 371 541 360Q535 358 472 358H408L405 341Q393 269 393 222Q393 170 402 129T421 65T431 37Q431 20 417 5T381 -10Q370 -10 363 -7T347 17T331 77Q330 86 330 121Q330 170 339 226T357 318T367 358H269L268 354Q268 351 249 275T206 114T175 17Q164 -11 132 -11Z"/>
            <path id="unit-circle-param-MJX-9-TEX-N-2F" d="M423 750Q432 750 438 744T444 730Q444 725 271 248T92 -240Q85 -250 75 -250Q68 -250 62 -245T56 -231Q56 -221 230 257T407 740Q411 750 423 750Z"/>
            <path id="unit-circle-param-MJX-9-TEX-N-32" d="M109 429Q82 429 66 447T50 491Q50 562 103 614T235 666Q326 666 387 610T449 465Q449 422 429 383T381 315T301 241Q265 210 201 149L142 93L218 92Q375 92 385 97Q392 99 409 186V189H449V186Q448 183 436 95T421 3V0H50V19V31Q50 38 56 46T86 81Q115 113 136 137Q145 147 170 174T204 211T233 244T261 278T284 308T305 340T320 369T333 401T340 431T343 464Q343 527 309 573T212 619Q179 619 154 602T119 569T109 550Q109 549 114 549Q132 549 151 535T170 489Q170 464 154 447T109 429Z"/>
          </defs>
          <g stroke="currentColor" fill="currentColor" stroke-width="0" transform="scale(1,-1)">
            <g data-mml-node="math" data-semantic-type="relseq" data-semantic-role="equality" data-semantic-id="6" data-semantic-children="0,5" data-semantic-content="1" data-semantic-speech="t equals pi divided by 2">
              <g data-mml-node="mi" data-semantic-type="identifier" data-semantic-role="latinletter" data-semantic-font="italic" data-semantic-annotation="clearspeak:simple" data-semantic-id="0" data-semantic-parent="6" data-semantic-speech="t">
                <use data-c="1D461" xlink:href="#unit-circle-param-MJX-9-TEX-I-1D461"/>
              </g>
              <g data-mml-node="mo" data-semantic-type="relation" data-semantic-role="equality" data-semantic-id="1" data-semantic-parent="6" data-semantic-operator="relseq,=" data-semantic-speech="equals" transform="translate(638.8,0)">
                <use data-c="3D" xlink:href="#unit-circle-param-MJX-9-TEX-N-3D"/>
              </g>
              <g data-mml-node="mrow" data-semantic-type="infixop" data-semantic-role="division" data-semantic-id="5" data-semantic-children="2,4" data-semantic-content="3" data-semantic-parent="6" data-semantic-speech="pi divided by 2" transform="translate(1694.6,0)">
                <g data-mml-node="mi" data-semantic-type="identifier" data-semantic-role="greekletter" data-semantic-font="italic" data-semantic-annotation="clearspeak:simple" data-semantic-id="2" data-semantic-parent="5" data-semantic-speech="pi">
                  <use data-c="1D70B" xlink:href="#unit-circle-param-MJX-9-TEX-I-1D70B"/>
                </g>
                <g data-mml-node="TeXAtom" data-mjx-texclass="ORD" transform="translate(570,0)">
                  <g data-mml-node="mo" data-semantic-type="operator" data-semantic-role="division" data-semantic-id="3" data-semantic-parent="5" data-semantic-attributes="texclass:ORD" data-semantic-operator="infixop,/" data-semantic-speech="slash">
                    <use data-c="2F" xlink:href="#unit-circle-param-MJX-9-TEX-N-2F"/>
                  </g>
                </g>
                <g data-mml-node="mn" data-semantic-type="number" data-semantic-role="integer" data-semantic-font="normal" data-semantic-annotation="clearspeak:simple" data-semantic-id="4" data-semantic-parent="5" data-semantic-speech="2" transform="translate(1070,0)">
                  <use data-c="32" xlink:href="#unit-circle-param-MJX-9-TEX-N-32"/>
                </g>
              </g>
            </g>
          </g>
        </svg>
      </g>
    </g>
    <circle id="unit-circle-param-circle-2" cx="76.2" cy="195.0" r="4" stroke="red" stroke-width="2" fill="red"/>
    <g id="unit-circle-param-label-8" transform="translate(64.2,195.0) translate(-41.0,-6.4)">
      <rect x="-6" y="-6" width="52.984" height="24.816000000000003" stroke="none" fill="white"/>
      <g id="unit-circle-param-g-8">
        <svg xmlns:xlink="http://www.w3.org/1999/xlink" style="vertical-align: -1.488px" width="40.984px" height="12.816px" role="img" focusable="false" viewBox="0 -626 2264.6 708" x="0.0" y="0.0">
          <defs>
            <path id="unit-circle-param-MJX-10-TEX-I-1D461" d="M26 385Q19 392 19 395Q19 399 22 411T27 425Q29 430 36 430T87 431H140L159 511Q162 522 166 540T173 566T179 586T187 603T197 615T211 624T229 626Q247 625 254 615T261 596Q261 589 252 549T232 470L222 433Q222 431 272 431H323Q330 424 330 420Q330 398 317 385H210L174 240Q135 80 135 68Q135 26 162 26Q197 26 230 60T283 144Q285 150 288 151T303 153H307Q322 153 322 145Q322 142 319 133Q314 117 301 95T267 48T216 6T155 -11Q125 -11 98 4T59 56Q57 64 57 83V101L92 241Q127 382 128 383Q128 385 77 385H26Z"/>
            <path id="unit-circle-param-MJX-10-TEX-N-3D" d="M56 347Q56 360 70 367H707Q722 359 722 347Q722 336 708 328L390 327H72Q56 332 56 347ZM56 153Q56 168 72 173H708Q722 163 722 153Q722 140 707 133H70Q56 140 56 153Z"/>
            <path id="unit-circle-param-MJX-10-TEX-I-1D70B" d="M132 -11Q98 -11 98 22V33L111 61Q186 219 220 334L228 358H196Q158 358 142 355T103 336Q92 329 81 318T62 297T53 285Q51 284 38 284Q19 284 19 294Q19 300 38 329T93 391T164 429Q171 431 389 431Q549 431 553 430Q573 423 573 402Q573 371 541 360Q535 358 472 358H408L405 341Q393 269 393 222Q393 170 402 129T421 65T431 37Q431 20 417 5T381 -10Q370 -10 363 -7T347 17T331 77Q330 86 330 121Q330 170 339 226T357 318T367 358H269L268 354Q268 351 249 275T206 114T175 17Q164 -11 132 -11Z"/>
          </defs>
          <g stroke="currentColor" fill="currentColor" stroke-width="0" transform="scale(1,-1)">
            <g data-mml-node="math" data-semantic-type="relseq" data-semantic-role="equality" data-semantic-id="3" data-semantic-children="0,2" data-semantic-content="1" data-semantic-speech="t equals pi">
              <g data-mml-node="mi" data-semantic-type="identifier" data-semantic-role="latinletter" data-semantic-font="italic" data-semantic-annotation="clearspeak:simple" data-semantic-id="0" data-semantic-parent="3" data-semantic-speech="t">
                <use data-c="1D461" xlink:href="#unit-circle-param-MJX-10-TEX-I-1D461"/>
              </g>
              <g data-mml-node="mo" data-semantic-type="relation" data-semantic-role="equality" data-semantic-id="1" data-semantic-parent="3" data-semantic-operator="relseq,=" data-semantic-speech="equals" transform="translate(638.8,0)">
                <use data-c="3D" xlink:href="#unit-circle-param-MJX-10-TEX-N-3D"/>
              </g>
              <g data-mml-node="mi" data-semantic-type="identifier" data-semantic-role="greekletter" data-semantic-font="italic" data-semantic-annotation="clearspeak:simple" data-semantic-id="2" data-semantic-parent="3" data-semantic-speech="pi" transform="translate(1694.6,0)">
                <use data-c="1D70B" xlink:href="#unit-circle-param-MJX-10-TEX-I-1D70B"/>
              </g>
            </g>
          </g>
        </svg>
      </g>
    </g>
    <circle id="unit-circle-param-circle-3" cx="195.0" cy="313.8" r="4" stroke="red" stroke-width="2" fill="red"/>
    <g id="unit-circle-param-label-9" transform="translate(195.0,325.8) translate(-34.1,-0.0)">
      <rect x="-6" y="-6" width="80.136" height="30.096" stroke="none" fill="white"/>
      <g id="unit-circle-param-g-9">
        <svg xmlns:xlink="http://www.w3.org/1999/xlink" style="vertical-align: -4.528px" width="68.136px" height="18.096px" role="img" focusable="false" viewBox="0 -750 3764.6 1000" x="0.0" y="0.0">
          <defs>
            <path id="unit-circle-param-MJX-11-TEX-I-1D461" d="M26 385Q19 392 19 395Q19 399 22 411T27 425Q29 430 36 430T87 431H140L159 511Q162 522 166 540T173 566T179 586T187 603T197 615T211 624T229 626Q247 625 254 615T261 596Q261 589 252 549T232 470L222 433Q222 431 272 431H323Q330 424 330 420Q330 398 317 385H210L174 240Q135 80 135 68Q135 26 162 26Q197 26 230 60T283 144Q285 150 288 151T303 153H307Q322 153 322 145Q322 142 319 133Q314 117 301 95T267 48T216 6T155 -11Q125 -11 98 4T59 56Q57 64 57 83V101L92 241Q127 382 128 383Q128 385 77 385H26Z"/>
            <path id="unit-circle-param-MJX-11-TEX-N-3D" d="M56 347Q56 360 70 367H707Q722 359 722 347Q722 336 708 328L390 327H72Q56 332 56 347ZM56 153Q56 168 72 173H708Q722 163 722 153Q722 140 707 133H70Q56 140 56 153Z"/>
            <path id="unit-circle-param-MJX-11-TEX-N-33" d="M127 463Q100 463 85 480T69 524Q69 579 117 622T233 665Q268 665 277 664Q351 652 390 611T430 522Q430 470 396 421T302 350L299 348Q299 347 308 345T337 336T375 315Q457 262 457 175Q457 96 395 37T238 -22Q158 -22 100 21T42 130Q42 158 60 175T105 193Q133 193 151 175T169 130Q169 119 166 110T159 94T148 82T136 74T126 70T118 67L114 66Q165 21 238 21Q293 21 321 74Q338 107 338 175V195Q338 290 274 322Q259 328 213 329L171 330L168 332Q166 335 166 348Q166 366 174 366Q202 366 232 371Q266 376 294 413T322 525V533Q322 590 287 612Q265 626 240 626Q208 626 181 615T143 592T132 580H135Q138 579 143 578T153 573T165 566T175 555T183 540T186 520Q186 498 172 481T127 463Z"/>
            <path id="unit-circle-param-MJX-11-TEX-N-2062" d=""/>
            <path id="unit-circle-param-MJX-11-TEX-I-1D70B" d="M132 -11Q98 -11 98 22V33L111 61Q186 219 220 334L228 358H196Q158 358 142 355T103 336Q92 329 81 318T62 297T53 285Q51 284 38 284Q19 284 19 294Q19 300 38 329T93 391T164 429Q171 431 389 431Q549 431 553 430Q573 423 573 402Q573 371 541 360Q535 358 472 358H408L405 341Q393 269 393 222Q393 170 402 129T421 65T431 37Q431 20 417 5T381 -10Q370 -10 363 -7T347 17T331 77Q330 86 330 121Q330 170 339 226T357 318T367 358H269L268 354Q268 351 249 275T206 114T175 17Q164 -11 132 -11Z"/>
            <path id="unit-circle-param-MJX-11-TEX-N-2F" d="M423 750Q432 750 438 744T444 730Q444 725 271 248T92 -240Q85 -250 75 -250Q68 -250 62 -245T56 -231Q56 -221 230 257T407 740Q411 750 423 750Z"/>
            <path id="unit-circle-param-MJX-11-TEX-N-32" d="M109 429Q82 429 66 447T50 491Q50 562 103 614T235 666Q326 666 387 610T449 465Q449 422 429 383T381 315T301 241Q265 210 201 149L142 93L218 92Q375 92 385 97Q392 99 409 186V189H449V186Q448 183 436 95T421 3V0H50V19V31Q50 38 56 46T86 81Q115 113 136 137Q145 147 170 174T204 211T233 244T261 278T284 308T305 340T320 369T333 401T340 431T343 464Q343 527 309 573T212 619Q179 619 154 602T119 569T109 550Q109 549 114 549Q132 549 151 535T170 489Q170 464 154 447T109 429Z"/>
          </defs>
          <g stroke="currentColor" fill="currentColor" stroke-width="0" transform="scale(1,-1)">
            <g data-mml-node="math" data-semantic-type="relseq" data-semantic-role="equality" data-semantic-id="9" data-semantic-children="0,8" data-semantic-content="1" data-semantic-speech="t equals 3 pi divided by 2">
              <g data-mml-node="mi" data-semantic-type="identifier" data-semantic-role="latinletter" data-semantic-font="italic" data-semantic-annotation="clearspeak:simple" data-semantic-id="0" data-semantic-parent="9" data-semantic-speech="t">
                <use data-c="1D461" xlink:href="#unit-circle-param-MJX-11-TEX-I-1D461"/>
              </g>
              <g data-mml-node="mo" data-semantic-type="relation" data-semantic-role="equality" data-semantic-id="1" data-semantic-parent="9" data-semantic-operator="relseq,=" data-semantic-speech="equals" transform="translate(638.8,0)">
                <use data-c="3D" xlink:href="#unit-circle-param-MJX-11-TEX-N-3D"/>
              </g>
              <g data-mml-node="mrow" data-semantic-type="infixop" data-semantic-role="division" data-semantic-id="8" data-semantic-children="7,5" data-semantic-content="4" data-semantic-parent="9" data-semantic-speech="3 pi divided by 2" transform="translate(1694.6,0)">
                <g data-mml-node="mrow" data-semantic-type="infixop" data-semantic-role="implicit" data-semantic-annotation="clearspeak:simple;clearspeak:unit" data-semantic-id="7" data-semantic-children="2,3" data-semantic-content="6" data-semantic-parent="8" data-semantic-speech="3 pi">
                  <g data-mml-node="mn" data-semantic-type="number" data-semantic-role="integer" data-semantic-font="normal" data-semantic-annotation="clearspeak:simple" data-semantic-id="2" data-semantic-parent="7" data-semantic-speech="3">
                    <use data-c="33" xlink:href="#unit-circle-param-MJX-11-TEX-N-33"/>
                  </g>
                  <g data-mml-node="mo" data-semantic-type="operator" data-semantic-role="multiplication" data-semantic-id="6" data-semantic-parent="7" data-semantic-added="true" data-semantic-operator="infixop,⁢" data-semantic-speech="times" transform="translate(500,0)">
                    <use data-c="2062" xlink:href="#unit-circle-param-MJX-11-TEX-N-2062"/>
                  </g>
                  <g data-mml-node="mi" data-semantic-type="identifier" data-semantic-role="greekletter" data-semantic-font="italic" data-semantic-annotation="clearspeak:simple" data-semantic-id="3" data-semantic-parent="7" data-semantic-speech="pi" transform="translate(500,0)">
                    <use data-c="1D70B" xlink:href="#unit-circle-param-MJX-11-TEX-I-1D70B"/>
                  </g>
                </g>
                <g data-mml-node="TeXAtom" data-mjx-texclass="ORD" transform="translate(1070,0)">
                  <g data-mml-node="mo" data-semantic-type="operator" data-semantic-role="division" data-semantic-id="4" data-semantic-parent="8" data-semantic-attributes="texclass:ORD" data-semantic-operator="infixop,/" data-semantic-speech="slash">
                    <use data-c="2F" xlink:href="#unit-circle-param-MJX-11-TEX-N-2F"/>
                  </g>
                </g>
                <g data-mml-node="mn" data-semantic-type="number" data-semantic-role="integer" data-semantic-font="normal" data-semantic-annotation="clearspeak:simple" data-semantic-id="5" data-semantic-parent="8" data-semantic-speech="2" transform="translate(1570,0)">
                  <use data-c="32" xlink:href="#unit-circle-param-MJX-11-TEX-N-32"/>
                </g>
              </g>
            </g>
          </g>
        </svg>
      </g>
    </g>
  </g>
  <g id="unit-circle-param-generic">
    <line id="unit-circle-param-line-20" x1="195.0" y1="195.0" x2="268.8" y2="102.0" stroke="#CC79A7" stroke-width="2" fill="none"/>
    <circle id="unit-circle-param-circle-4" cx="268.8" cy="102.0" r="4.5" stroke="#CC79A7" stroke-width="2" fill="#CC79A7"/>
    <g id="unit-circle-param-label-10" transform="translate(278.8,92.0) translate(0.0,-18.1)">
      <rect x="-6" y="-6" width="123.016" height="30.096" stroke="none" fill="white"/>
      <g id="unit-circle-param-g-10">
        <svg xmlns:xlink="http://www.w3.org/1999/xlink" style="vertical-align: -4.528px; color:#CC79A7" width="111.016px" height="18.096px" role="img" focusable="false" viewBox="0 -750 6133.8 1000" x="0.0" y="0.0">
          <defs>
            <path id="unit-circle-param-MJX-12-TEX-N-28" d="M94 250Q94 319 104 381T127 488T164 576T202 643T244 695T277 729T302 750H315H319Q333 750 333 741Q333 738 316 720T275 667T226 581T184 443T167 250T184 58T225 -81T274 -167T316 -220T333 -241Q333 -250 318 -250H315H302L274 -226Q180 -141 137 -14T94 250Z"/>
            <path id="unit-circle-param-MJX-12-TEX-N-63" d="M370 305T349 305T313 320T297 358Q297 381 312 396Q317 401 317 402T307 404Q281 408 258 408Q209 408 178 376Q131 329 131 219Q131 137 162 90Q203 29 272 29Q313 29 338 55T374 117Q376 125 379 127T395 129H409Q415 123 415 120Q415 116 411 104T395 71T366 33T318 2T249 -11Q163 -11 99 53T34 214Q34 318 99 383T250 448T370 421T404 357Q404 334 387 320Z"/>
            <path id="unit-circle-param-MJX-12-TEX-N-6F" d="M28 214Q28 309 93 378T250 448Q340 448 405 380T471 215Q471 120 407 55T250 -10Q153 -10 91 57T28 214ZM250 30Q372 30 372 193V225V250Q372 272 371 288T364 326T348 362T317 390T268 410Q263 411 252 411Q222 411 195 399Q152 377 139 338T126 246V226Q126 130 145 91Q177 30 250 30Z"/>
            <path id="unit-circle-param-MJX-12-TEX-N-73" d="M295 316Q295 356 268 385T190 414Q154 414 128 401Q98 382 98 349Q97 344 98 336T114 312T157 287Q175 282 201 278T245 269T277 256Q294 248 310 236T342 195T359 133Q359 71 321 31T198 -10H190Q138 -10 94 26L86 19L77 10Q71 4 65 -1L54 -11H46H42Q39 -11 33 -5V74V132Q33 153 35 157T45 162H54Q66 162 70 158T75 146T82 119T101 77Q136 26 198 26Q295 26 295 104Q295 133 277 151Q257 175 194 187T111 210Q75 227 54 256T33 318Q33 357 50 384T93 424T143 442T187 447H198Q238 447 268 432L283 424L292 431Q302 440 314 448H322H326Q329 448 335 442V310L329 304H301Q295 310 295 316Z"/>
            <path id="unit-circle-param-MJX-12-TEX-N-2061" d=""/>
            <path id="unit-circle-param-MJX-12-TEX-I-1D461" d="M26 385Q19 392 19 395Q19 399 22 411T27 425Q29 430 36 430T87 431H140L159 511Q162 522 166 540T173 566T179 586T187 603T197 615T211 624T229 626Q247 625 254 615T261 596Q261 589 252 549T232 470L222 433Q222 431 272 431H323Q330 424 330 420Q330 398 317 385H210L174 240Q135 80 135 68Q135 26 162 26Q197 26 230 60T283 144Q285 150 288 151T303 153H307Q322 153 322 145Q322 142 319 133Q314 117 301 95T267 48T216 6T155 -11Q125 -11 98 4T59 56Q57 64 57 83V101L92 241Q127 382 128 383Q128 385 77 385H26Z"/>
            <path id="unit-circle-param-MJX-12-TEX-N-30" d="M96 585Q152 666 249 666Q297 666 345 640T423 548Q460 465 460 320Q460 165 417 83Q397 41 362 16T301 -15T250 -22Q224 -22 198 -16T137 16T82 83Q39 165 39 320Q39 494 96 585ZM321 597Q291 629 250 629Q208 629 178 597Q153 571 145 525T137 333Q137 175 145 125T181 46Q209 16 250 16Q290 16 318 46Q347 76 354 130T362 333Q362 478 354 524T321 597Z"/>
            <path id="unit-circle-param-MJX-12-TEX-N-2C" d="M78 35T78 60T94 103T137 121Q165 121 187 96T210 8Q210 -27 201 -60T180 -117T154 -158T130 -185T117 -194Q113 -194 104 -185T95 -172Q95 -168 106 -156T131 -126T157 -76T173 -3V9L172 8Q170 7 167 6T161 3T152 1T140 0Q113 0 96 17Z"/>
            <path id="unit-circle-param-MJX-12-TEX-N-A0" d=""/>
            <path id="unit-circle-param-MJX-12-TEX-N-69" d="M69 609Q69 637 87 653T131 669Q154 667 171 652T188 609Q188 579 171 564T129 549Q104 549 87 564T69 609ZM247 0Q232 3 143 3Q132 3 106 3T56 1L34 0H26V46H42Q70 46 91 49Q100 53 102 60T104 102V205V293Q104 345 102 359T88 378Q74 385 41 385H30V408Q30 431 32 431L42 432Q52 433 70 434T106 436Q123 437 142 438T171 441T182 442H185V62Q190 52 197 50T232 46H255V0H247Z"/>
            <path id="unit-circle-param-MJX-12-TEX-N-6E" d="M41 46H55Q94 46 102 60V68Q102 77 102 91T102 122T103 161T103 203Q103 234 103 269T102 328V351Q99 370 88 376T43 385H25V408Q25 431 27 431L37 432Q47 433 65 434T102 436Q119 437 138 438T167 441T178 442H181V402Q181 364 182 364T187 369T199 384T218 402T247 421T285 437Q305 442 336 442Q450 438 463 329Q464 322 464 190V104Q464 66 466 59T477 49Q498 46 526 46H542V0H534L510 1Q487 2 460 2T422 3Q319 3 310 0H302V46H318Q379 46 379 62Q380 64 380 200Q379 335 378 343Q372 371 358 385T334 402T308 404Q263 404 229 370Q202 343 195 315T187 232V168V108Q187 78 188 68T191 55T200 49Q221 46 249 46H265V0H257L234 1Q210 2 183 2T145 3Q42 3 33 0H25V46H41Z"/>
            <path id="unit-circle-param-MJX-12-TEX-N-29" d="M60 749L64 750Q69 750 74 750H86L114 726Q208 641 251 514T294 250Q294 182 284 119T261 12T224 -76T186 -143T145 -194T113 -227T90 -246Q87 -249 86 -250H74Q66 -250 63 -250T58 -247T55 -238Q56 -237 66 -225Q221 -64 221 250T66 725Q56 737 55 738Q55 746 60 749Z"/>
          </defs>
          <g stroke="currentColor" fill="currentColor" stroke-width="0" transform="scale(1,-1)">
            <g data-mml-node="math">
              <g data-mml-node="TeXAtom" data-semantic-type="fenced" data-semantic-role="leftright" data-semantic-id="21" data-semantic-children="20" data-semantic-content="0,13" data-semantic-attributes="texclass:INNER" data-semantic-speech="left parenthesis cosine t 0 comma sine t 0 right parenthesis" data-mjx-texclass="INNER">
                <g data-mml-node="mo" data-semantic-type="fence" data-semantic-role="open" data-semantic-id="0" data-semantic-parent="21" data-semantic-attributes="texclass:OPEN" data-semantic-operator="fenced" data-semantic-speech="left parenthesis">
                  <use data-c="28" xlink:href="#unit-circle-param-MJX-12-TEX-N-28"/>
                </g>
                <g data-mml-node="mrow" data-semantic-type="punctuated" data-semantic-role="sequence" data-semantic-id="20" data-semantic-children="15,6,19" data-semantic-content="6" data-semantic-parent="21" data-semantic-speech="cosine t 0 comma sine t 0" transform="translate(389,0)">
                  <g data-mml-node="mrow" data-semantic-type="appl" data-semantic-role="prefix function" data-semantic-id="15" data-semantic-children="1,5" data-semantic-content="14,1" data-semantic-parent="20" data-semantic-speech="cosine t 0">
                    <g data-mml-node="mi" data-semantic-type="function" data-semantic-role="prefix function" data-semantic-font="normal" data-semantic-id="1" data-semantic-parent="15" data-semantic-operator="appl" data-semantic-speech="cosine">
                      <use data-c="63" xlink:href="#unit-circle-param-MJX-12-TEX-N-63"/>
                      <use data-c="6F" xlink:href="#unit-circle-param-MJX-12-TEX-N-6F" transform="translate(444,0)"/>
                      <use data-c="73" xlink:href="#unit-circle-param-MJX-12-TEX-N-73" transform="translate(944,0)"/>
                    </g>
                    <g data-mml-node="mo" data-semantic-type="punctuation" data-semantic-role="application" data-semantic-id="14" data-semantic-parent="15" data-semantic-attributes="texclass:NONE" data-semantic-operator="appl" data-semantic-speech="of" transform="translate(1338,0)">
                      <use data-c="2061" xlink:href="#unit-circle-param-MJX-12-TEX-N-2061"/>
                    </g>
                    <g data-mml-node="msub" data-semantic-type="subscript" data-semantic-role="latinletter" data-semantic-id="5" data-semantic-children="3,4" data-semantic-parent="15" data-semantic-speech="t 0" transform="translate(1504.7,0)">
                      <g data-mml-node="mi" data-semantic-type="identifier" data-semantic-role="latinletter" data-semantic-font="italic" data-semantic-annotation="clearspeak:simple" data-semantic-id="3" data-semantic-parent="5" data-semantic-speech="t" data-semantic-prefix="Base">
                        <use data-c="1D461" xlink:href="#unit-circle-param-MJX-12-TEX-I-1D461"/>
                      </g>
                      <g data-mml-node="mn" transform="translate(394,-150) scale(0.707)" data-semantic-type="number" data-semantic-role="integer" data-semantic-font="normal" data-semantic-annotation="clearspeak:simple" data-semantic-id="4" data-semantic-parent="5" data-semantic-speech="0" data-semantic-prefix="Subscript">
                        <use data-c="30" xlink:href="#unit-circle-param-MJX-12-TEX-N-30"/>
                      </g>
                    </g>
                  </g>
                  <g data-mml-node="mo" data-semantic-type="punctuation" data-semantic-role="comma" data-semantic-id="6" data-semantic-parent="20" data-semantic-operator="punctuated" data-semantic-speech="comma" transform="translate(2302.2,0)">
                    <use data-c="2C" xlink:href="#unit-circle-param-MJX-12-TEX-N-2C"/>
                  </g>
                  <g data-mml-node="mrow" data-semantic-type="punctuated" data-semantic-role="text" data-semantic-id="19" data-semantic-children="7,17" data-semantic-parent="20" data-semantic-collapsed="(19 (c 18) 7 17)" data-semantic-speech="sine t 0" transform="translate(2746.9,0)">
                    <g data-mml-node="mtext" data-semantic-type="text" data-semantic-role="space" data-semantic-annotation="clearspeak:unit" data-semantic-id="7" data-semantic-parent="19" data-semantic-speech="">
                      <use data-c="A0" xlink:href="#unit-circle-param-MJX-12-TEX-N-A0"/>
                    </g>
                    <g data-mml-node="mrow" data-semantic-type="appl" data-semantic-role="prefix function" data-semantic-id="17" data-semantic-children="8,12" data-semantic-content="16,8" data-semantic-parent="19" data-semantic-speech="sine t 0" transform="translate(416.7,0)">
                      <g data-mml-node="mi" data-semantic-type="function" data-semantic-role="prefix function" data-semantic-font="normal" data-semantic-id="8" data-semantic-parent="17" data-semantic-operator="appl" data-semantic-speech="sine">
                        <use data-c="73" xlink:href="#unit-circle-param-MJX-12-TEX-N-73"/>
                        <use data-c="69" xlink:href="#unit-circle-param-MJX-12-TEX-N-69" transform="translate(394,0)"/>
                        <use data-c="6E" xlink:href="#unit-circle-param-MJX-12-TEX-N-6E" transform="translate(672,0)"/>
                      </g>
                      <g data-mml-node="mo" data-semantic-type="punctuation" data-semantic-role="application" data-semantic-id="16" data-semantic-parent="17" data-semantic-attributes="texclass:NONE" data-semantic-operator="appl" data-semantic-speech="of" transform="translate(1228,0)">
                        <use data-c="2061" xlink:href="#unit-circle-param-MJX-12-TEX-N-2061"/>
                      </g>
                      <g data-mml-node="msub" data-semantic-type="subscript" data-semantic-role="latinletter" data-semantic-id="12" data-semantic-children="10,11" data-semantic-parent="17" data-semantic-speech="t 0" transform="translate(1394.7,0)">
                        <g data-mml-node="mi" data-semantic-type="identifier" data-semantic-role="latinletter" data-semantic-font="italic" data-semantic-annotation="clearspeak:simple" data-semantic-id="10" data-semantic-parent="12" data-semantic-speech="t" data-semantic-prefix="Base">
                          <use data-c="1D461" xlink:href="#unit-circle-param-MJX-12-TEX-I-1D461"/>
                        </g>
                        <g data-mml-node="mn" transform="translate(394,-150) scale(0.707)" data-semantic-type="number" data-semantic-role="integer" data-semantic-font="normal" data-semantic-annotation="clearspeak:simple" data-semantic-id="11" data-semantic-parent="12" data-semantic-speech="0" data-semantic-prefix="Subscript">
                          <use data-c="30" xlink:href="#unit-circle-param-MJX-12-TEX-N-30"/>
                        </g>
                      </g>
                    </g>
                  </g>
                </g>
                <g data-mml-node="mo" data-semantic-type="fence" data-semantic-role="close" data-semantic-id="13" data-semantic-parent="21" data-semantic-attributes="texclass:CLOSE" data-semantic-operator="fenced" data-semantic-speech="right parenthesis" transform="translate(5744.8,0)">
                  <use data-c="29" xlink:href="#unit-circle-param-MJX-12-TEX-N-29"/>
                </g>
              </g>
            </g>
          </g>
        </svg>
      </g>
    </g>
    <g id="unit-circle-param-label-11" transform="translate(247.6,153.8) translate(0.0,-0.0)">
      <rect x="-6" y="-6" width="26.432000000000002" height="26.328" stroke="none" fill="white"/>
      <g id="unit-circle-param-g-11">
        <svg xmlns:xlink="http://www.w3.org/1999/xlink" style="vertical-align: -3.000px; color:#CC79A7" width="14.432px" height="14.328px" role="img" focusable="false" viewBox="0 -626 797.6 791.6" x="0.0" y="0.0">
          <defs>
            <path id="unit-circle-param-MJX-13-TEX-I-1D461" d="M26 385Q19 392 19 395Q19 399 22 411T27 425Q29 430 36 430T87 431H140L159 511Q162 522 166 540T173 566T179 586T187 603T197 615T211 624T229 626Q247 625 254 615T261 596Q261 589 252 549T232 470L222 433Q222 431 272 431H323Q330 424 330 420Q330 398 317 385H210L174 240Q135 80 135 68Q135 26 162 26Q197 26 230 60T283 144Q285 150 288 151T303 153H307Q322 153 322 145Q322 142 319 133Q314 117 301 95T267 48T216 6T155 -11Q125 -11 98 4T59 56Q57 64 57 83V101L92 241Q127 382 128 383Q128 385 77 385H26Z"/>
            <path id="unit-circle-param-MJX-13-TEX-N-30" d="M96 585Q152 666 249 666Q297 666 345 640T423 548Q460 465 460 320Q460 165 417 83Q397 41 362 16T301 -15T250 -22Q224 -22 198 -16T137 16T82 83Q39 165 39 320Q39 494 96 585ZM321 597Q291 629 250 629Q208 629 178 597Q153 571 145 525T137 333Q137 175 145 125T181 46Q209 16 250 16Q290 16 318 46Q347 76 354 130T362 333Q362 478 354 524T321 597Z"/>
          </defs>
          <g stroke="currentColor" fill="currentColor" stroke-width="0" transform="scale(1,-1)">
            <g data-mml-node="math">
              <g data-mml-node="msub" data-semantic-type="subscript" data-semantic-role="latinletter" data-semantic-id="2" data-semantic-children="0,1" data-semantic-speech="t 0">
                <g data-mml-node="mi" data-semantic-type="identifier" data-semantic-role="latinletter" data-semantic-font="italic" data-semantic-annotation="clearspeak:simple" data-semantic-id="0" data-semantic-parent="2" data-semantic-speech="t" data-semantic-prefix="Base">
                  <use data-c="1D461" xlink:href="#unit-circle-param-MJX-13-TEX-I-1D461"/>
                </g>
                <g data-mml-node="mn" transform="translate(394,-150) scale(0.707)" data-semantic-type="number" data-semantic-role="integer" data-semantic-font="normal" data-semantic-annotation="clearspeak:simple" data-semantic-id="1" data-semantic-parent="2" data-semantic-speech="0" data-semantic-prefix="Subscript">
                  <use data-c="30" xlink:href="#unit-circle-param-MJX-13-TEX-N-30"/>
                </g>
              </g>
            </g>
          </g>
        </svg>
      </g>
    </g>
  </g>
</svg>
